<?xml version="1.0" encoding="UTF-8"?>
<svg  viewBox="0 0 174 109" version="1.1" xmlns="http://www.w3.org/2000/svg" xmlns:xlink="http://www.w3.org/1999/xlink">
    <!-- Generator: Sketch 58 (84663) - https://sketch.com -->
    <title>Fill 14</title>
    <desc>Created with Sketch.</desc>
    <g id="Page-1" stroke="none" stroke-width="1" fill="none" fill-rule="evenodd">
        <g id="Artboard-Copy-17" transform="translate(-648.000000, -281.000000)" stroke="#FFFFFF">
            <path d="M818.915548,371.562336 C814.772646,374.849373 811.857868,377.160062 808.943091,379.472786 C809.213764,380.017913 809.486456,380.565074 809.757128,381.110202 C813.041555,380.752208 816.323961,380.392179 820.5921,379.924346 C818.48934,387.971077 812.615347,390.359061 807.660428,388.29856 C798.291934,384.399272 804.638594,377.916732 807.57357,372.508173 C794.136912,370.545308 793.967237,370.801599 796.128576,388.701304 C785.41884,378.927658 785.06737,369.949329 795.175163,360.582495 C776.270521,342.286149 753.79866,331.395805 727.06674,326.306594 C730.425904,331.853468 733.114448,336.29585 737.293709,343.195372 C729.312916,336.415859 723.663137,331.617518 716.995306,325.952668 C710.963758,341.368789 726.375919,346.390876 726.747589,354.720341 C719.615172,355.418023 712.65243,354.740682 706.830955,357.018826 C699.728837,359.795314 693.957861,365.230316 700.064148,375.278559 C698.807744,375.612145 697.553359,375.947764 696.298975,376.281349 C694.327511,373.087879 691.071364,370.059168 690.643136,366.668394 C689.594786,358.397917 698.058345,352.049624 712.931182,348.36798 C711.680837,339.641874 710.436553,330.946279 708.927656,320.407828 C687.67988,313.237775 662.947703,305.54497 649,281 C667.805665,304.475056 695.008232,310.764362 722.069402,317.112655 C747.878208,323.168043 772.133678,332.532844 792.720933,349.612823 C804.329543,337.772575 809.67835,336.277543 822,341.757294 C817.121839,343.138419 812.980956,344.314104 807.341277,345.910839 C811.365002,348.671055 814.089905,350.540353 818.198468,353.357523 C813.730355,356.08316 810.514607,358.046025 806.844371,360.283488 C810.811538,363.991575 814.62721,367.557277 818.915548,371.562336" id="Fill-14" fill="white"></path>
        </g>
    </g>
</svg>
