<?xml version="1.0" encoding="UTF-8"?>
<svg width="141px" height="89px" viewBox="0 0 141 89" version="1.1" xmlns="http://www.w3.org/2000/svg" xmlns:xlink="http://www.w3.org/1999/xlink">
    <!-- Generator: Sketch 58 (84663) - https://sketch.com -->
    <title>SocialES</title>
    <desc>Created with Sketch.</desc>
    <g id="Page-1" stroke="none" stroke-width="1" fill="none" fill-rule="evenodd">
        <g id="Artboard" transform="translate(-768.000000, -1788.000000)" stroke="#FFFFFF" stroke-width="2">
            <g id="SocialES" transform="translate(769.000000, 1779.000000)">
                <path d="M28.681969,10.9078638 C33.8884017,16.4309249 40.437908,21.2707276 43.7237822,27.7641127 C45.3395938,30.9511067 40.9059164,37.2014437 38.7815529,43.2894827 C62.1553162,47.5672964 91.851928,27.8883129 113.022916,54.1440206 C122.545001,65.9539406 129.656538,79.7120128 137.860761,92.5867739 C136.327812,93.7874063 134.798118,94.9906752 133.268115,96.190998 C129.895835,92.7865123 126.135085,89.6819901 123.236723,85.9119676 C117.262808,78.1314126 112.100419,69.7115531 105.962429,62.0703636 C96.369195,50.1219728 83.1684683,48.0334605 68.7042595,49.199263 C47.9217965,50.8712777 27.8838493,49.1975745 12.0815942,34.4585776 C21.5411939,34.8195725 31.1859328,35.184937 40.8309814,35.5532474 L42.5491541,30.9852602 L42.5491541,30.9852602 L26.239476,13.8274014 L28.681969,10.9078638 Z M14.8329609,40.857723 C15.553808,41.373492 16.2768933,41.8884904 16.9977404,42.4042594 C13.3771324,48.102717 9.7565245,53.8011745 6.13591657,59.499632 C6.67124253,59.9782808 7.20577129,60.4546143 7.74109725,60.9332631 C11.3165606,58.2518717 14.8928212,55.5727955 18.7132794,52.7086351 C18.9993917,53.8376608 19.4356066,54.7337194 19.2430392,54.9087952 L16.8870795,57.0744091 C12.9592492,60.6836698 9.01138329,64.2734522 4.83524585,67.5587675 C4.31389301,67.9713613 0.280508401,65.040462 0.386521981,64.78124 C2.8198976,58.7975261 5.31609402,52.7999504 8.44501911,47.1931003 C9.86071359,44.651965 12.6592923,42.9424887 14.8329609,40.857723 Z"></path>
            </g>
        </g>
    </g>
</svg>